<svg xmlns="http://www.w3.org/2000/svg" width="24" height="24" viewBox="0 0 24 24" shape-rendering="crispEdges">
  <g transform="rotate(22 12 12)">
    <path fill="#10191d" d="M2 5h3V3h15v2h2v15h-2v3H4v-3H2z"/>
    <path fill="#743c1b" d="M5 4h14v5H5z"/><path fill="#d98b32" d="M7 4h10v2H7z"/>
    <path fill="#064851" d="M4 9h16v7H4z"/><path fill="#1ce0d8" d="M7 10h10v5H7z"/>
    <path fill="#633217" d="M4 16h16v5H4z"/><path fill="#af5d22" d="M6 17h12v3H6z"/>
    <path fill="#202e2f" d="M4 16h2v5H4zm14 0h2v5h-2z"/><path fill="#f8c54b" d="M11 17h3v3h-3z"/>
  </g>
</svg>
