<svg xmlns="http://www.w3.org/2000/svg" width="32" height="32" viewBox="0 0 32 32">
<defs>
 <linearGradient id="frame" x1="0" y1="0" x2="1" y2="1"><stop stop-color="#193a3e"/><stop offset="1" stop-color="#07191d"/></linearGradient>
 <linearGradient id="house" x1="0" y1="0" x2=".8" y2="1"><stop stop-color="#eef4ef"/><stop offset=".48" stop-color="#c7d7d3"/><stop offset="1" stop-color="#91aaa9"/></linearGradient>
 <linearGradient id="roof" x1="0" y1="0" x2="0" y2="1"><stop stop-color="#ffffff"/><stop offset="1" stop-color="#bdcfcb"/></linearGradient>
</defs>
<path d="M16 1 29 8.5v15L16 31 3 23.5v-15z" fill="url(#frame)" stroke="#061416" stroke-width=".8"/>
<path d="M16 4 26 10v12L16 28 6 22V10z" fill="#143237" stroke="#20e070" stroke-width="1.2"/>
<!-- Unified house silhouette: pitched roof flows into the walls -->
<path d="M7.2 14.8 15.4 9q.6-.4 1.2 0l8.2 5.8v9q0 1.1-1.2 1.1H8.4q-1.2 0-1.2-1.1z" fill="url(#house)" stroke="#4d686b" stroke-width=".7" stroke-linejoin="round"/>
<path d="M8.5 14.4 16 9.2l7.5 5.2v1H8.5z" fill="url(#roof)"/>
<path d="M8.2 15.2h15.6" stroke="#718a8b" stroke-width=".8"/>
<path d="M13 25V20a3 3 0 0 1 6 0v5z" fill="#16383d" stroke="#526e70" stroke-width=".6"/>
</svg>
