<svg xmlns="http://www.w3.org/2000/svg" width="1120" height="768" viewBox="0 0 1120 768">
<rect width="1120" height="768" fill="#e8e8e8"/>
<style>text{font-family:Arial,sans-serif;fill:#171717}.title{font-size:24px;font-weight:bold}.label{font-size:16px;font-weight:bold}.small{font-size:12px}.tile{fill:#f8f8f8;stroke:#c5c5c5;stroke-width:1}.dark{fill:#171717}.white{fill:#fff}</style>
<text x="32" y="38" class="title">YiboVault — Stage 2 / Silhouette directions</text><text x="32" y="61" class="small">Black and white only · compare at native 32px and 24px · transparent icon silhouette</text>
<!-- cards -->
<g transform="translate(24 84)">
<!-- reuse each card at x step 272, y step 220 -->
<g transform="translate(0 0)"><rect class="tile" width="256" height="210" rx="8"/><text x="14" y="25" class="label">A · Open coffer</text><text x="14" y="45" class="small">lid + bright contents</text>
<g transform="translate(38 58) scale(3.5)"><path class="dark" d="M16 1 29 8.5v15L16 31 3 23.5v-15z"/><path class="white" d="M16 4 26 10v12L16 28 6 22V10z"/><path class="dark" d="m7 12 8-5 8 5-8 5z"/><path class="dark" d="M8 17h16v6l-8 5-8-5z"/><path class="white" d="m11 20 5-3 5 3-5 3z"/></g>
<g transform="translate(150 88) scale(2.55)"><path class="dark" d="M16 1 29 8.5v15L16 31 3 23.5v-15z"/><path class="white" d="M16 4 26 10v12L16 28 6 22V10z"/><path class="dark" d="m7 12 8-5 8 5-8 5zM8 17h16v6l-8 5-8-5z"/><path class="white" d="m11 20 5-3 5 3-5 3z"/></g><text x="41" y="196" class="small">32px</text><text x="153" y="196" class="small">24px</text></g>
<g transform="translate(272 0)"><rect class="tile" width="256" height="210" rx="8"/><text x="14" y="25" class="label">B · Vault door</text><text x="14" y="45" class="small">round door + central hub</text>
<g transform="translate(38 58) scale(3.5)"><path class="dark" d="M16 1 29 8.5v15L16 31 3 23.5v-15z"/><path class="white" d="M16 4 26 10v12L16 28 6 22V10z"/><circle class="dark" cx="16" cy="16" r="8"/><circle class="white" cx="16" cy="16" r="5.5"/><path class="dark" d="M15 10h2v5h-2zM16 15l4 2-1 2-4-2zM14 16l-3 4 2 1 3-4z"/><circle class="dark" cx="16" cy="16" r="1.5"/></g>
<g transform="translate(150 88) scale(2.55)"><path class="dark" d="M16 1 29 8.5v15L16 31 3 23.5v-15z"/><path class="white" d="M16 4 26 10v12L16 28 6 22V10z"/><circle class="dark" cx="16" cy="16" r="8"/><circle class="white" cx="16" cy="16" r="5.5"/><path class="dark" d="M15 10h2v5h-2zM16 15l4 2-1 2-4-2zM14 16l-3 4 2 1 3-4z"/><circle class="dark" cx="16" cy="16" r="1.5"/></g><text x="41" y="196" class="small">32px</text><text x="153" y="196" class="small">24px</text></g>
<g transform="translate(544 0)"><rect class="tile" width="256" height="210" rx="8"/><text x="14" y="25" class="label">C · Keyhole cache</text><text x="14" y="45" class="small">access + stored item</text>
<g transform="translate(38 58) scale(3.5)"><path class="dark" d="M16 1 29 8.5v15L16 31 3 23.5v-15z"/><path class="white" d="M16 4 26 10v12L16 28 6 22V10z"/><path class="dark" d="M16 8a5 5 0 0 0-3 9v7h6v-7a5 5 0 0 0-3-9z"/><path class="white" d="M16 11a2 2 0 1 0 0 4 2 2 0 0 0 0-4z"/></g>
<g transform="translate(150 88) scale(2.55)"><path class="dark" d="M16 1 29 8.5v15L16 31 3 23.5v-15z"/><path class="white" d="M16 4 26 10v12L16 28 6 22V10z"/><path class="dark" d="M16 8a5 5 0 0 0-3 9v7h6v-7a5 5 0 0 0-3-9z"/><path class="white" d="M16 11a2 2 0 1 0 0 4 2 2 0 0 0 0-4z"/></g><text x="41" y="196" class="small">32px</text><text x="153" y="196" class="small">24px</text></g>
<g transform="translate(816 0)"><rect class="tile" width="256" height="210" rx="8"/><text x="14" y="25" class="label">D · Item ledger</text><text x="14" y="45" class="small">three bold inventory cells</text>
<g transform="translate(38 58) scale(3.5)"><path class="dark" d="M16 1 29 8.5v15L16 31 3 23.5v-15z"/><path class="white" d="M16 4 26 10v12L16 28 6 22V10z"/><path class="dark" d="M8 10h16v13l-8 5-8-5z"/><path class="white" d="M10 12h5v5h-5zM17 12h5v5h-5zM10 19h5v4h-5zM17 19h5v4h-5z"/></g>
<g transform="translate(150 88) scale(2.55)"><path class="dark" d="M16 1 29 8.5v15L16 31 3 23.5v-15z"/><path class="white" d="M16 4 26 10v12L16 28 6 22V10z"/><path class="dark" d="M8 10h16v13l-8 5-8-5z"/><path class="white" d="M10 12h5v5h-5zM17 12h5v5h-5zM10 19h5v4h-5zM17 19h5v4h-5z"/></g><text x="41" y="196" class="small">32px</text><text x="153" y="196" class="small">24px</text></g>
<g transform="translate(0 228)"><rect class="tile" width="256" height="210" rx="8"/><text x="14" y="25" class="label">E · Archive chest</text><text x="14" y="45" class="small">front-facing compact chest</text>
<g transform="translate(38 58) scale(3.5)"><path class="dark" d="M16 1 29 8.5v15L16 31 3 23.5v-15z"/><path class="white" d="M16 4 26 10v12L16 28 6 22V10z"/><path class="dark" d="M8 12h16v11l-8 5-8-5zM8 9l8-4 8 4v3H8z"/><path class="white" d="M15 14h2v7h-2z"/></g>
<g transform="translate(150 88) scale(2.55)"><path class="dark" d="M16 1 29 8.5v15L16 31 3 23.5v-15z"/><path class="white" d="M16 4 26 10v12L16 28 6 22V10z"/><path class="dark" d="M8 12h16v11l-8 5-8-5zM8 9l8-4 8 4v3H8z"/><path class="white" d="M15 14h2v7h-2z"/></g><text x="41" y="196" class="small">32px</text><text x="153" y="196" class="small">24px</text></g>
<g transform="translate(272 228)"><rect class="tile" width="256" height="210" rx="8"/><text x="14" y="25" class="label">F · Stacked stores</text><text x="14" y="45" class="small">three source layers</text>
<g transform="translate(38 58) scale(3.5)"><path class="dark" d="M16 1 29 8.5v15L16 31 3 23.5v-15z"/><path class="white" d="M16 4 26 10v12L16 28 6 22V10z"/><path class="dark" d="m8 11 8-4 8 4-8 4zM8 16l8 4 8-4v4l-8 5-8-5z"/><path class="white" d="m12 11 4-2 4 2-4 2z"/></g>
<g transform="translate(150 88) scale(2.55)"><path class="dark" d="M16 1 29 8.5v15L16 31 3 23.5v-15z"/><path class="white" d="M16 4 26 10v12L16 28 6 22V10z"/><path class="dark" d="m8 11 8-4 8 4-8 4zM8 16l8 4 8-4v4l-8 5-8-5z"/><path class="white" d="m12 11 4-2 4 2-4 2z"/></g><text x="41" y="196" class="small">32px</text><text x="153" y="196" class="small">24px</text></g>
<g transform="translate(544 228)"><rect class="tile" width="256" height="210" rx="8"/><text x="14" y="25" class="label">G · Open vault</text><text x="14" y="45" class="small">swinging door + cache core</text>
<g transform="translate(38 58) scale(3.5)"><path class="dark" d="M16 1 29 8.5v15L16 31 3 23.5v-15z"/><path class="white" d="M16 4 26 10v12L16 28 6 22V10z"/><path class="dark" d="M8 9h8v15l-8-3z"/><path class="white" d="M18 12h5v7h-5z"/><circle class="dark" cx="20.5" cy="15.5" r="1.5"/></g>
<g transform="translate(150 88) scale(2.55)"><path class="dark" d="M16 1 29 8.5v15L16 31 3 23.5v-15z"/><path class="white" d="M16 4 26 10v12L16 28 6 22V10z"/><path class="dark" d="M8 9h8v15l-8-3z"/><path class="white" d="M18 12h5v7h-5z"/><circle class="dark" cx="20.5" cy="15.5" r="1.5"/></g><text x="41" y="196" class="small">32px</text><text x="153" y="196" class="small">24px</text></g>
<g transform="translate(816 228)"><rect class="tile" width="256" height="210" rx="8"/><text x="14" y="25" class="label">H · Account nexus</text><text x="14" y="45" class="small">hub joining source nodes</text>
<g transform="translate(38 58) scale(3.5)"><path class="dark" d="M16 1 29 8.5v15L16 31 3 23.5v-15z"/><path class="white" d="M16 4 26 10v12L16 28 6 22V10z"/><path class="dark" d="M15 8h2v7h-2zM9 15h14v2H9zM11 20l5-4 5 4v4l-5 3-5-3z"/><circle class="white" cx="16" cy="22" r="2"/><circle class="dark" cx="10" cy="13" r="2"/><circle class="dark" cx="22" cy="13" r="2"/></g>
<g transform="translate(150 88) scale(2.55)"><path class="dark" d="M16 1 29 8.5v15L16 31 3 23.5v-15z"/><path class="white" d="M16 4 26 10v12L16 28 6 22V10z"/><path class="dark" d="M15 8h2v7h-2zM9 15h14v2H9zM11 20l5-4 5 4v4l-5 3-5-3z"/><circle class="white" cx="16" cy="22" r="2"/><circle class="dark" cx="10" cy="13" r="2"/><circle class="dark" cx="22" cy="13" r="2"/></g><text x="41" y="196" class="small">32px</text><text x="153" y="196" class="small">24px</text></g>
</g></svg>
